<svg   id="chart"   width="1000"   height="500"   viewBox="0 0 1000 500"   xmlns="http://www.w3.org/2000/svg" >      <path d="M 0,489.10106995213306 C 20.000000000000004,486.05601281799676 60,485.9110709664988 100,473.87578428145144 C 140,461.8404975964041 160,447.0235765388682 200,428.9246365268962 C 240,410.82569651492423 260,389.60821332255614 300,383.3810842215916 C 340,377.1539551206271 360,402.26573981999996 400,397.7889910220737 C 440,393.3122422241474 460,396.16331716052855 500,360.99734023196027 C 540,325.831363303392 560,238.61309869456272 600,221.9591063792323 C 640,205.3051140639019 660,291.51189125550394 700,277.7273786553082 C 740,263.94286605511246 760,177.6425833070162 800,153.0365433782535 C 840,128.43050344949083 860,140.29807967611555 900,154.69717901149488 C 940,169.09627834687421 980,210.96506784641915 1000,225.03204005515022,L 1000 500,L 0 500Z" fill="#28a9931a" />   <path d="M 0,489.10106995213306 C 20.000000000000004,486.05601281799676 60,485.9110709664988 100,473.87578428145144 C 140,461.8404975964041 160,447.0235765388682 200,428.9246365268962 C 240,410.82569651492423 260,389.60821332255614 300,383.3810842215916 C 340,377.1539551206271 360,402.26573981999996 400,397.7889910220737 C 440,393.3122422241474 460,396.16331716052855 500,360.99734023196027 C 540,325.831363303392 560,238.61309869456272 600,221.9591063792323 C 640,205.3051140639019 660,291.51189125550394 700,277.7273786553082 C 740,263.94286605511246 760,177.6425833070162 800,153.0365433782535 C 840,128.43050344949083 860,140.29807967611555 900,154.69717901149488 C 940,169.09627834687421 980,210.96506784641915 1000,225.03204005515022" fill="none" stroke="#28a993" stroke-width="2px" />   <g>   		<circle cx="0" cy="489.10106995213306" r="6" fill="#28a993" />,		<circle cx="100" cy="473.87578428145144" r="6" fill="#28a993" />,		<circle cx="200" cy="428.9246365268962" r="6" fill="#28a993" />,		<circle cx="300" cy="383.3810842215916" r="6" fill="#28a993" />,		<circle cx="400" cy="397.7889910220737" r="6" fill="#28a993" />,		<circle cx="500" cy="360.99734023196027" r="6" fill="#28a993" />,		<circle cx="600" cy="221.9591063792323" r="6" fill="#28a993" />,		<circle cx="700" cy="277.7273786553082" r="6" fill="#28a993" />,		<circle cx="800" cy="153.0365433782535" r="6" fill="#28a993" />,		<circle cx="900" cy="154.69717901149488" r="6" fill="#28a993" />,		<circle cx="1000" cy="225.03204005515022" r="6" fill="#28a993" />   </g> </svg>