<svg   id="chart"   width="100"   height="100"   viewBox="0 0 1000 1000"   xmlns="http://www.w3.org/2000/svg" >      <path d="M 0,97.736511012933 C 5,95.64534759291917 15.000000000000002,95.35996594743624 25,87.28069391286388 C 35,79.20142187829153 40,62.64608809325261 50,57.3401508400712 C 60,52.0342135868898 65,71.72790307691885 75,60.75100764695687 C 85,49.774112216994894 95,14.114740481600442 100,2.455673690261335,L 100 100,L 0 100Z" fill="#28a9931a" />   <path d="M 0,97.736511012933 C 5,95.64534759291917 15.000000000000002,95.35996594743624 25,87.28069391286388 C 35,79.20142187829153 40,62.64608809325261 50,57.3401508400712 C 60,52.0342135868898 65,71.72790307691885 75,60.75100764695687 C 85,49.774112216994894 95,14.114740481600442 100,2.455673690261335" fill="none" stroke="#28a993" stroke-width="1px" />   <g>   		<circle cx="0" cy="97.736511012933" r="6" fill="#28a993" />,		<circle cx="25" cy="87.28069391286388" r="6" fill="#28a993" />,		<circle cx="50" cy="57.3401508400712" r="6" fill="#28a993" />,		<circle cx="75" cy="60.75100764695687" r="6" fill="#28a993" />,		<circle cx="100" cy="2.455673690261335" r="6" fill="#28a993" />   </g> </svg>